# Blender v2.83.0 OBJ File: 'zaehler.blend'
# www.blender.org
mtllib zaehler.mtl
o Plane
v -1.000000 0.000000 2.968030
v 1.000000 0.000000 2.968030
v -1.000000 0.000000 -2.968030
v 1.000000 0.000000 -2.968030
v -1.000000 0.125084 -2.968030
v -1.000000 0.125084 2.968030
v 1.000000 0.125084 2.968030
v 1.000000 0.125084 -2.968030
vt 0.457116 1.000000
vt 0.457116 0.000000
vt 0.914232 0.000000
vt 0.914232 1.000000
vt 0.000000 0.000000
vt 0.457116 0.000000
vt 0.457116 1.000000
vt 0.000000 1.000000
vt 0.971411 0.673847
vt 0.971411 0.336924
vt 1.000000 0.336924
vt 1.000000 0.673847
vt 0.971411 0.336924
vt 0.971411 0.000000
vt 1.000000 0.000000
vt 1.000000 0.336924
vt 0.942821 0.000000
vt 0.942822 1.000000
vt 0.914233 1.000000
vt 0.914232 0.000000
vt 0.971411 0.000000
vt 0.971411 1.000000
vt 0.942822 1.000000
vt 0.942822 0.000000
vn 0.0000 -1.0000 0.0000
vn 0.0000 1.0000 0.0000
vn 0.0000 0.0000 -1.0000
vn 0.0000 0.0000 1.0000
vn 1.0000 0.0000 0.0000
vn -1.0000 0.0000 0.0000
usemtl None
s off
f 1/1/1 3/2/1 4/3/1 2/4/1
f 6/5/2 7/6/2 8/7/2 5/8/2
f 4/9/3 3/10/3 5/11/3 8/12/3
f 1/13/4 2/14/4 7/15/4 6/16/4
f 2/17/5 4/18/5 8/19/5 7/20/5
f 3/21/6 1/22/6 6/23/6 5/24/6
