# Blender v2.83.0 OBJ File: 'zaehler.blend'
# www.blender.org
mtllib zaehler1.mtl
o Body.001
v 3.000000 1.000000 0.000000
v -3.000000 1.000000 0.000000
v -3.000000 1.000000 0.100000
v 3.000000 1.000000 0.100000
v 3.000000 -1.000000 -0.000000
v 3.000000 -1.000000 0.100000
v -3.000000 -1.000000 -0.000000
v -3.000000 -1.000000 0.100000
vt 0.953488 0.000000
vt 0.953488 1.000000
vt 0.930232 1.000000
vt 0.930232 0.000000
vt 1.000000 0.333333
vt 1.000000 0.666667
vt 0.976744 0.666667
vt 0.976744 0.333333
vt 0.953488 1.000000
vt 0.953488 0.000000
vt 0.976744 0.000000
vt 0.976744 1.000000
vt 1.000000 0.000000
vt 1.000000 0.333333
vt 0.976744 0.333333
vt 0.976744 0.000000
vt 0.000041 -0.000063
vt 1.000078 -0.000124
vt -0.000000 1.000102
vt -0.000011 1.000000
vt 1.000076 0.000103
vt 1.000011 1.000062
vt -0.000026 0.000000
vt 1.000051 0.000030
vt 0.999990 1.000000
vt 1.000084 1.000219
vt 0.000000 1.000063
vn 0.0000 1.0000 0.0000
vn 1.0000 0.0000 0.0000
vn 0.0000 -1.0000 0.0000
vn -1.0000 0.0000 0.0000
vn 0.0000 0.0000 -1.0000
vn 0.0000 -0.0000 1.0000
usemtl color_cccccc.001
s 1
f 1/1/1 2/2/1 3/3/1
f 1/1/1 3/3/1 4/4/1
f 5/5/2 1/6/2 4/7/2
f 5/5/2 4/7/2 6/8/2
f 7/9/3 5/10/3 6/11/3
f 7/9/3 6/11/3 8/12/3
f 2/13/4 7/14/4 8/15/4
f 2/13/4 8/15/4 3/16/4
f 2/17/5 1/18/5 7/19/5
f 7/20/5 1/21/5 5/22/5
f 4/23/6 3/24/6 8/25/6
f 4/23/6 8/26/6 6/27/6
